<svg width="405.3" height="97.2" viewBox="0 0 405.3 97.2" xmlns="http://www.w3.org/2000/svg"><g id="svgGroup" stroke-linecap="round" fill-rule="evenodd" font-size="9pt" stroke="#000" stroke-width="0.25mm" fill="none" style="stroke:#000;stroke-width:0.25mm;fill:none"><path d="M 9 74 L 0 74 L 0 4 L 12.6 4 L 43.5 62.2 L 43.5 4 L 52.5 4 L 52.5 74 L 40.1 74 L 9 16.2 L 9 74 Z" id="0" vector-effect="non-scaling-stroke"/><path d="M 79.5 74 L 70.5 74 L 70.5 4 L 83.8 4 L 103.2 48.3 L 122.3 4 L 135.9 4 L 135.9 74 L 126.4 74 L 126.4 16.1 L 107.7 58.2 L 98.3 58.2 L 79.5 16.1 L 79.5 74 Z" id="1" vector-effect="non-scaling-stroke"/><path d="M 198.8 6.4 L 195.9 14.4 Q 192.8 12.9 189.55 12 Q 186.757 11.227 183.115 11.118 A 40.705 40.705 0 0 0 181.9 11.1 A 21.173 21.173 0 0 0 173.995 12.555 A 19.981 19.981 0 0 0 170.45 14.4 A 21.167 21.167 0 0 0 164.084 20.981 A 26.978 26.978 0 0 0 162.5 23.9 Q 159.6 30.1 159.6 38.9 Q 159.6 47.3 162.45 53.6 A 25.677 25.677 0 0 0 166.036 59.428 A 21.423 21.423 0 0 0 170.35 63.4 A 19.703 19.703 0 0 0 181.495 66.897 A 23.894 23.894 0 0 0 181.9 66.9 A 33.715 33.715 0 0 0 185.871 66.678 Q 188.347 66.384 190.4 65.7 Q 194 64.5 197.4 62.6 L 200.3 70.5 A 37.561 37.561 0 0 1 195.805 72.544 A 47.894 47.894 0 0 1 191.85 73.85 A 33.592 33.592 0 0 1 186.885 74.841 Q 184.403 75.155 181.606 75.194 A 57.414 57.414 0 0 1 180.8 75.2 A 32.384 32.384 0 0 1 171.475 73.899 A 27.961 27.961 0 0 1 164.7 70.85 A 28.6 28.6 0 0 1 154.823 60.405 A 34.916 34.916 0 0 1 153.8 58.45 A 37.611 37.611 0 0 1 150.701 48.733 Q 149.925 44.467 149.901 39.614 A 62.816 62.816 0 0 1 149.9 39.3 Q 149.9 28.6 153.85 20.35 Q 157.8 12.1 165.05 7.45 A 29.371 29.371 0 0 1 177.73 3.039 A 37.292 37.292 0 0 1 182 2.8 A 45.639 45.639 0 0 1 187.058 3.068 A 35.2 35.2 0 0 1 191.1 3.75 A 38.224 38.224 0 0 1 198.575 6.294 A 35.605 35.605 0 0 1 198.8 6.4 Z" id="2" vector-effect="non-scaling-stroke"/><path d="M 200.8 95.2 L 202.8 87.7 A 9.908 9.908 0 0 0 203.965 88.274 Q 204.788 88.619 205.8 88.9 A 13.514 13.514 0 0 0 208.079 89.317 A 17.358 17.358 0 0 0 209.8 89.4 Q 214 89.4 217.3 86.7 A 12.003 12.003 0 0 0 219.233 84.639 Q 220.981 82.328 222.641 78.475 A 58.58 58.58 0 0 0 223.6 76.1 L 225.9 70.1 L 221.1 70.1 L 200.8 24.4 L 208.8 20.8 L 228.2 64.1 L 243.3 21.2 L 251.6 24.4 L 232.5 76.6 A 71.728 71.728 0 0 1 230.447 81.686 Q 229.345 84.126 228.178 86.114 A 30.86 30.86 0 0 1 226.2 89.1 A 24.268 24.268 0 0 1 223.322 92.311 Q 221.408 94.079 219.305 95.118 A 14.737 14.737 0 0 1 218.7 95.4 Q 214.6 97.2 209.6 97.2 Q 206.6 97.2 204.35 96.6 Q 202.1 96 200.8 95.2 Z" id="3" vector-effect="non-scaling-stroke"/><path d="M 269 69.7 L 269 74 L 260.6 74 L 260.6 0 L 269.6 0 L 269.6 27.4 Q 271.6 25.1 275.45 22.95 A 16.584 16.584 0 0 1 280.681 21.128 A 22.424 22.424 0 0 1 284.6 20.8 Q 290.6 20.8 295.85 23.95 A 22.329 22.329 0 0 1 303.028 30.917 A 27.464 27.464 0 0 1 304.3 33.05 Q 307.5 39 307.5 47.5 A 33.315 33.315 0 0 1 306.813 54.388 A 27.75 27.75 0 0 1 305.5 58.8 A 29.367 29.367 0 0 1 302.339 64.804 A 25.482 25.482 0 0 1 300.15 67.55 A 24.894 24.894 0 0 1 294.019 72.464 A 23.302 23.302 0 0 1 292.6 73.2 A 20.006 20.006 0 0 1 285.234 75.16 A 19.209 19.209 0 0 1 284 75.2 Q 279.5 75.2 275.55 73.55 A 30.274 30.274 0 0 1 272.247 71.942 Q 270.422 70.903 269 69.7 Z M 269.6 35.4 L 269.6 63.2 A 17.99 17.99 0 0 0 273.23 65.385 A 21.802 21.802 0 0 0 275 66.1 A 19.462 19.462 0 0 0 281.164 67.196 A 22.039 22.039 0 0 0 281.6 67.2 Q 286.5 67.2 290.25 64.8 Q 294 62.4 296.15 58 Q 298.3 53.6 298.3 47.8 Q 298.3 41.8 296.15 37.5 Q 294 33.2 290.45 30.9 Q 286.9 28.6 282.6 28.6 A 14.741 14.741 0 0 0 276.973 29.663 A 14.054 14.054 0 0 0 274.85 30.75 Q 271.4 32.9 269.6 35.4 Z" id="4" vector-effect="non-scaling-stroke"/><path d="M 362.1 51.7 L 325.7 51.7 A 24.088 24.088 0 0 0 326.839 56.725 Q 328.175 60.538 330.8 63.1 Q 335 67.2 341.9 67.2 Q 346.4 67.2 350 66.25 Q 353.6 65.3 356.9 63.8 L 359 71.5 A 40.77 40.77 0 0 1 354.665 73.126 A 51.863 51.863 0 0 1 350.9 74.15 A 38.914 38.914 0 0 1 345.808 74.969 A 52.025 52.025 0 0 1 340.8 75.2 A 28.318 28.318 0 0 1 333.054 74.195 A 21.108 21.108 0 0 1 323.05 68.05 A 23.521 23.521 0 0 1 317.845 58.51 Q 316.5 53.845 316.5 48 A 35.359 35.359 0 0 1 317.333 40.178 A 28.84 28.84 0 0 1 319.45 34.05 A 24.642 24.642 0 0 1 324.466 26.968 A 22.887 22.887 0 0 1 327.7 24.35 A 21.048 21.048 0 0 1 337.959 20.878 A 26.205 26.205 0 0 1 340 20.8 Q 347.5 20.8 352.45 24.05 Q 357.4 27.3 359.9 32.8 A 28.185 28.185 0 0 1 362.326 42.664 A 33.434 33.434 0 0 1 362.4 44.9 A 75.204 75.204 0 0 1 362.109 51.597 A 69.426 69.426 0 0 1 362.1 51.7 Z M 325.6 44.4 L 354.1 44.4 A 24.355 24.355 0 0 0 353.696 39.815 Q 353.2 37.231 352.096 35.207 A 12.422 12.422 0 0 0 350.3 32.7 A 12.488 12.488 0 0 0 343.339 28.924 A 18.395 18.395 0 0 0 339.8 28.6 A 13.58 13.58 0 0 0 334.688 29.535 A 12.524 12.524 0 0 0 330.2 32.65 Q 326.4 36.7 325.6 44.4 Z" id="5" vector-effect="non-scaling-stroke"/><path d="M 383.4 74 L 374.4 74 L 374.4 22 L 383.1 22 L 383.1 33.3 Q 384.4 30 386.6 27.15 Q 388.8 24.3 392.1 22.55 A 14.817 14.817 0 0 1 396.78 21.026 A 19.459 19.459 0 0 1 399.8 20.8 Q 401.3 20.8 402.8 20.95 A 18.972 18.972 0 0 1 403.855 21.084 Q 404.355 21.162 404.782 21.262 A 8.817 8.817 0 0 1 405.3 21.4 L 402.6 30.7 A 9.763 9.763 0 0 0 400.455 30.088 Q 399.359 29.9 398.1 29.9 A 12.958 12.958 0 0 0 391.47 31.746 A 15.609 15.609 0 0 0 391.05 32 Q 387.722 34.086 385.578 38.442 A 22.927 22.927 0 0 0 385.55 38.5 Q 383.787 42.107 383.47 47.328 A 39.09 39.09 0 0 0 383.4 49.7 L 383.4 74 Z" id="6" vector-effect="non-scaling-stroke"/></g></svg>