<?xml version="1.0" standalone="no"?>
<!DOCTYPE svg PUBLIC "-//W3C//DTD SVG 20010904//EN"
 "http://www.w3.org/TR/2001/REC-SVG-20010904/DTD/svg10.dtd">
<svg version="1.0" xmlns="http://www.w3.org/2000/svg"
 width="1024.000000pt" height="1024.000000pt" viewBox="0 0 1024.000000 1024.000000"
 preserveAspectRatio="xMidYMid meet">

<g transform="translate(0.000000,1024.000000) scale(0.100000,-0.100000)"
fill="#000000" stroke="none">
<path d="M3460 9124 c-333 -29 -702 -155 -960 -327 -283 -188 -513 -441 -752
-825 -263 -424 -388 -777 -445 -1257 -24 -198 -23 -613 2 -795 39 -298 136
-645 235 -841 40 -79 155 -260 225 -354 296 -398 690 -656 1112 -730 174 -30
463 -15 668 36 271 67 561 217 809 418 329 266 665 731 830 1146 98 247 180
605 206 900 13 145 13 490 -1 635 -26 291 -122 650 -238 895 -143 300 -419
638 -667 817 -171 123 -443 240 -620 267 -78 12 -332 21 -404 15z m440 -168
c140 -32 248 -76 347 -142 134 -89 197 -173 223 -298 13 -64 9 -100 -21 -192
-28 -87 -80 -170 -258 -409 -294 -395 -385 -485 -502 -493 -54 -4 -69 0 -149
37 -48 22 -98 41 -110 41 -32 0 -94 35 -124 70 -57 69 -61 102 -60 590 0 391
3 453 18 510 40 149 127 242 271 292 76 26 234 24 365 -6z m-968 -156 c54 -16
119 -69 145 -120 34 -67 42 -178 44 -610 2 -373 1 -387 -20 -449 -36 -105 -70
-144 -196 -227 -131 -86 -170 -104 -222 -104 -69 0 -112 33 -335 257 -306 307
-323 331 -323 463 0 164 52 260 245 450 275 272 497 386 662 340z m1891 -554
c98 -41 224 -265 333 -589 51 -152 69 -260 61 -371 -11 -160 -61 -257 -163
-313 -46 -25 -95 -39 -214 -62 -246 -47 -605 -102 -684 -104 -64 -2 -77 1
-114 25 -50 34 -65 62 -82 153 -7 39 -23 99 -36 134 -13 35 -24 76 -24 92 0
65 69 190 191 346 95 121 304 404 368 498 56 81 146 169 193 190 42 18 129 19
171 1z m-2863 -536 c33 -15 103 -80 268 -248 123 -125 240 -253 262 -284 57
-85 58 -107 11 -304 -61 -254 -66 -267 -110 -307 -49 -44 -97 -59 -306 -96
-308 -54 -427 -67 -482 -52 -60 16 -125 79 -159 153 -27 59 -28 70 -27 188 1
144 25 265 93 469 103 310 170 429 269 481 48 25 124 25 181 0z m1438 -344
c64 -18 112 -42 219 -112 96 -63 123 -95 167 -201 38 -90 51 -142 67 -272 14
-115 2 -232 -42 -401 -44 -173 -90 -259 -190 -362 -95 -96 -170 -143 -305
-188 -112 -38 -254 -42 -352 -10 -76 25 -221 117 -255 162 -44 59 -99 180
-125 277 -21 82 -25 117 -25 241 0 203 40 367 126 519 48 85 186 222 273 272
135 77 318 108 442 75z m1690 -641 c58 -24 118 -95 140 -164 28 -93 23 -237
-17 -416 -108 -493 -241 -787 -393 -870 -43 -24 -65 -30 -118 -30 -57 0 -72 4
-116 33 -49 31 -174 159 -364 372 -47 52 -124 137 -172 187 -120 128 -141 165
-146 268 -4 77 -1 94 43 236 66 212 79 236 151 272 44 23 314 74 644 122 124
18 291 14 348 -10z m-2725 -389 c74 -27 95 -58 137 -209 41 -151 41 -152 30
-223 -13 -78 -41 -138 -108 -225 -26 -35 -75 -102 -107 -149 -33 -47 -87 -121
-120 -165 -34 -44 -83 -111 -110 -150 -69 -100 -103 -134 -160 -161 -62 -30
-125 -31 -181 -3 -88 42 -143 137 -223 384 -109 336 -125 519 -56 654 27 55
101 126 152 148 48 19 185 45 408 77 277 39 286 40 338 22z m1456 -514 c59
-40 138 -119 355 -355 278 -303 306 -350 306 -508 0 -91 -22 -161 -82 -256
-103 -164 -407 -373 -673 -464 -53 -17 -92 -23 -160 -24 -158 0 -238 56 -287
204 -21 63 -22 84 -26 519 -3 479 3 593 37 661 26 50 50 68 174 132 56 29 120
64 142 79 53 36 61 38 121 39 40 1 60 -5 93 -27z m-970 -121 c47 -22 109 -45
136 -52 61 -14 99 -48 122 -108 16 -42 18 -88 16 -521 -1 -521 -7 -585 -60
-681 -32 -60 -70 -94 -140 -126 -112 -52 -218 -41 -388 41 -208 101 -386 253
-449 385 -28 60 -31 75 -31 166 0 87 4 107 26 156 36 77 140 229 310 454 256
340 292 362 458 286z"/>
<path d="M3629 8921 c-154 -21 -281 -147 -304 -301 l-7 -45 23 30 c30 41 102
96 175 135 87 45 205 62 429 61 99 0 187 4 195 9 11 7 1 15 -42 34 -138 61
-341 94 -469 77z"/>
<path d="M3326 8521 c-4 -6 -10 -145 -13 -308 -6 -346 6 -547 34 -574 10 -9
55 -23 105 -32 83 -15 128 -31 211 -78 45 -25 74 -20 118 19 l32 28 -51 38
c-65 47 -154 84 -262 107 -75 15 -80 18 -40 18 86 1 205 -41 298 -107 l64 -44
33 32 34 33 -41 33 c-63 54 -193 112 -313 142 -118 29 -122 44 -5 18 114 -26
160 -45 266 -107 55 -32 104 -59 108 -59 4 0 18 12 31 28 l24 27 -22 18 c-116
95 -248 152 -415 181 -101 17 -121 31 -32 22 136 -13 259 -56 359 -125 31 -21
72 -46 90 -55 32 -17 34 -17 57 5 13 12 24 26 24 30 0 14 -117 98 -192 138
-90 48 -183 77 -306 96 -97 14 -129 25 -75 25 49 0 194 -28 256 -49 80 -28
170 -75 244 -127 84 -60 88 -61 117 -27 30 34 28 36 -73 107 -135 95 -254 141
-451 176 -58 10 -100 19 -95 20 47 9 230 -27 328 -65 95 -35 138 -59 240 -128
48 -32 89 -58 91 -56 25 37 37 63 32 74 -6 18 -135 104 -214 144 -93 47 -233
89 -356 107 -128 19 -155 30 -46 19 199 -20 365 -79 543 -194 51 -34 97 -61
101 -61 7 0 46 60 46 72 0 12 -134 101 -210 139 -148 74 -356 129 -491 129
-19 0 -41 5 -49 11 -27 19 176 -1 276 -26 170 -45 307 -107 421 -191 l72 -54
41 57 c22 31 40 64 40 74 0 21 -147 122 -242 167 -78 37 -217 85 -328 112
-100 26 -402 41 -414 21z m358 -77 c175 -30 374 -110 511 -205 64 -44 89 -69
70 -69 -2 0 -41 25 -85 55 -191 130 -398 199 -662 220 -53 5 -85 11 -82 17 7
11 130 3 248 -18z"/>
<path d="M2765 8735 c-109 -29 -153 -56 -335 -202 -181 -145 -279 -258 -324
-373 -23 -57 -23 -154 -2 -204 l17 -38 45 72 c87 141 154 215 352 385 140 120
229 186 346 255 58 34 106 67 106 72 0 15 -82 48 -120 47 -19 0 -57 -6 -85
-14z"/>
<path d="M2930 8407 c-271 -133 -463 -281 -649 -500 -59 -71 -70 -89 -62 -104
5 -10 87 -94 181 -188 l172 -170 26 35 c82 107 241 227 385 289 l77 34 0 40
c0 39 0 39 -32 33 -96 -19 -281 -133 -407 -251 -97 -90 -119 -99 -36 -14 116
117 280 228 408 273 l62 23 3 51 c2 29 1 52 -2 52 -2 0 -47 -19 -98 -43 -141
-66 -290 -169 -395 -273 -51 -50 -88 -83 -82 -71 6 11 55 63 108 116 111 112
195 166 394 255 l77 35 0 40 c0 23 -1 41 -2 41 -22 -1 -115 -39 -194 -78 -111
-56 -210 -126 -309 -220 -116 -110 -149 -138 -138 -117 13 24 141 151 198 196
116 92 247 165 393 221 51 19 52 21 52 59 0 21 -4 39 -8 39 -27 0 -135 -46
-235 -100 -121 -65 -260 -171 -386 -293 -67 -65 -82 -63 -26 5 26 31 211 187
270 228 65 44 224 126 295 151 82 28 90 35 90 73 0 60 -11 63 -86 21 -38 -20
-125 -67 -194 -103 -174 -90 -224 -126 -366 -264 -117 -112 -158 -141 -121
-85 46 71 343 338 438 395 58 34 47 21 -21 -27 -32 -23 -62 -46 -65 -51 -5 -8
287 127 365 169 33 18 35 22 38 75 2 31 -1 56 -5 55 -4 0 -55 -24 -113 -52z"/>
<path d="M2962 7745 c-88 -41 -222 -140 -307 -225 l-80 -81 39 -35 c43 -38 61
-41 110 -20 50 21 246 154 277 189 26 29 45 74 35 84 -16 16 -219 -121 -323
-219 -28 -26 -58 -48 -65 -48 -20 1 138 146 220 202 40 27 92 57 115 67 57 24
77 46 77 82 0 37 -25 38 -98 4z"/>
<path d="M4591 8106 c-13 -14 -37 -45 -55 -70 -41 -60 -150 -210 -315 -436
-75 -102 -156 -216 -180 -254 -42 -64 -44 -70 -32 -99 43 -108 83 -241 88
-296 l6 -64 90 7 c50 4 95 10 100 13 21 13 -37 287 -88 412 -33 79 -27 91 8
17 31 -65 74 -228 91 -341 l12 -80 39 3 c22 2 42 6 44 8 7 6 -41 246 -64 324
-13 41 -40 110 -60 153 -20 43 -35 83 -33 89 2 5 25 -34 51 -89 54 -113 90
-242 108 -379 l12 -96 45 6 c25 3 47 8 50 11 6 6 -43 229 -79 353 -16 56 -49
143 -74 192 -50 99 -55 115 -24 77 58 -75 130 -286 170 -505 l22 -114 40 6
c22 4 43 9 47 11 22 14 -98 453 -161 588 -27 60 -47 112 -44 115 8 8 93 -181
126 -281 31 -98 84 -304 95 -374 7 -45 11 -47 64 -37 32 7 32 7 25 53 -10 67
-70 303 -101 396 -14 44 -48 127 -74 185 -69 153 -70 175 0 32 84 -174 168
-446 185 -599 8 -69 0 -64 80 -48 33 7 32 22 -5 167 -47 184 -118 390 -167
486 -65 125 -116 241 -96 215 10 -13 48 -83 85 -155 94 -185 197 -493 214
-638 4 -33 9 -62 13 -64 16 -10 61 8 61 24 0 9 -27 122 -59 251 -68 272 -107
368 -229 568 -45 73 -82 139 -82 147 0 7 7 17 16 22 12 7 69 112 60 112 -1 0
-13 -11 -25 -24z m-421 -969 c46 -173 34 -171 -16 3 -24 85 -44 157 -43 160 1
23 35 -71 59 -163z"/>
<path d="M5095 7518 c-76 -30 -167 -58 -192 -58 -13 0 -23 -2 -23 -5 0 -3 15
-36 34 -73 31 -62 86 -266 86 -321 0 -11 4 -21 9 -21 20 0 99 82 125 129 46
86 61 305 23 354 -11 14 -17 14 -62 -5z"/>
<path d="M4835 7433 c8 -22 25 -90 60 -248 15 -66 29 -130 32 -142 5 -23 18
-30 27 -15 5 8 -2 47 -36 202 -19 90 -69 220 -83 220 -4 0 -4 -8 0 -17z"/>
<path d="M1794 7651 c-77 -35 -164 -181 -232 -391 -86 -262 -109 -397 -92
-535 11 -84 48 -167 87 -192 l22 -15 -6 104 c-15 268 67 577 242 913 30 58 55
112 55 120 0 20 -26 19 -76 -4z"/>
<path d="M1945 7418 c-89 -186 -119 -271 -157 -437 -48 -214 -57 -269 -65
-380 -5 -87 -4 -103 8 -99 10 3 17 36 25 114 17 170 65 388 121 554 25 73 99
231 141 300 39 63 23 20 -42 -113 -90 -185 -147 -387 -191 -672 -14 -89 -19
-185 -11 -185 3 0 16 4 29 9 22 9 24 16 30 108 4 54 13 123 21 154 8 30 20 86
27 125 20 118 78 291 142 427 34 72 63 124 65 114 2 -9 -13 -49 -33 -89 -36
-71 -98 -223 -116 -283 -31 -100 -78 -333 -84 -410 -3 -49 -9 -103 -12 -119
-5 -27 -4 -28 28 -21 19 4 37 12 40 17 4 6 9 44 13 87 9 104 31 219 73 391 26
109 49 173 90 258 31 61 60 112 65 112 5 0 -7 -30 -27 -67 -67 -124 -104 -242
-149 -463 -13 -69 -27 -152 -31 -185 -3 -33 -9 -77 -12 -99 l-5 -39 33 7 c19
3 43 8 54 10 11 2 72 13 135 25 141 25 184 37 200 55 6 8 17 57 25 108 14 102
46 234 70 292 14 33 14 40 -1 71 -24 50 -403 465 -425 465 -3 0 -37 -64 -74
-142z m248 -125 c-8 -32 -32 -105 -53 -163 -54 -145 -100 -343 -120 -508 -7
-66 -7 -67 -9 -16 -2 105 63 397 122 544 19 47 40 111 47 143 7 31 17 57 21
57 4 0 1 -26 -8 -57z m58 -74 c-7 -34 -23 -86 -36 -115 -25 -57 -75 -261 -105
-434 -18 -96 -19 -99 -14 -35 3 39 14 108 24 155 11 47 29 128 41 180 12 52
30 112 40 132 10 20 26 71 36 113 19 89 31 93 14 4z m40 -147 c-35 -114 -61
-227 -90 -387 -7 -39 -9 -43 -10 -18 -3 83 123 586 136 546 3 -7 -14 -70 -36
-141z m83 -43 c-21 -55 -50 -163 -69 -259 -36 -180 -46 -182 -16 -3 24 137 53
244 88 320 40 88 38 48 -3 -58z"/>
<path d="M3304 7324 c16 -40 18 -106 6 -150 -17 -59 -76 -124 -114 -124 -39 0
-80 24 -95 57 -19 41 -25 126 -13 163 l11 31 -32 -6 c-61 -13 -120 -49 -184
-111 l-64 -63 46 -42 c26 -24 53 -55 61 -70 41 -80 -13 -179 -98 -179 -24 0
-108 82 -108 105 0 28 -17 15 -44 -34 -34 -64 -66 -189 -66 -262 l0 -57 29 29
c25 24 38 29 79 29 44 0 54 -4 76 -31 30 -36 34 -80 10 -138 -28 -71 -96 -91
-163 -50 l-34 20 5 -93 c6 -95 20 -141 71 -222 24 -38 24 -38 30 -13 4 13 32
48 63 76 65 60 100 66 141 25 22 -22 24 -31 19 -66 -8 -48 -29 -90 -67 -138
-16 -19 -29 -40 -29 -46 0 -22 74 -83 119 -99 24 -8 67 -15 94 -15 l49 0 -8
38 c-24 106 12 209 81 232 30 10 41 9 73 -7 52 -25 72 -70 72 -161 l0 -72 63
31 c96 49 160 95 181 130 18 31 18 32 0 42 -11 6 -36 27 -56 47 -34 34 -38 43
-38 89 0 87 36 130 108 131 37 0 49 -6 93 -47 27 -25 51 -44 53 -42 13 14 41
82 52 124 18 65 29 195 18 195 -5 -1 -20 -7 -34 -15 -29 -17 -103 -19 -131 -5
-32 18 -52 68 -46 118 4 34 13 53 40 80 30 30 44 36 91 40 39 3 61 0 73 -9 15
-13 16 -8 10 56 -3 39 -15 96 -27 129 -24 63 -78 130 -87 108 -29 -71 -114
-152 -160 -152 -34 0 -83 51 -83 87 1 56 54 139 116 179 29 19 23 30 -40 73
-52 35 -109 57 -170 66 -45 7 -49 6 -42 -11z m-14 -474 c102 -51 145 -196 101
-339 -50 -166 -192 -235 -338 -164 -85 41 -108 86 -108 213 0 81 4 103 26 150
66 141 199 200 319 140z"/>
<path d="M3120 6758 c-129 -69 -148 -271 -31 -336 78 -44 157 -20 210 64 39
61 46 110 27 176 -30 106 -115 144 -206 96z m79 -114 c25 -32 26 -52 5 -82
-34 -49 -81 -46 -109 8 -20 38 -19 42 10 74 31 34 67 34 94 0z"/>
<path d="M3114 6625 c-8 -34 14 -87 35 -83 20 4 28 73 10 94 -18 22 -38 17
-45 -11z"/>
<path d="M3165 7245 c-13 -30 -14 -42 -5 -71 15 -45 38 -54 62 -25 24 31 23
49 -2 26 -39 -35 -71 13 -33 50 16 16 18 16 34 -4 9 -11 20 -21 23 -21 12 0 6
36 -10 58 -23 33 -49 28 -69 -13z"/>
<path d="M3556 7090 c-39 -44 -44 -61 -21 -80 30 -25 60 10 80 93 11 40 -16
35 -59 -13z"/>
<path d="M2790 7036 c0 -16 7 -27 20 -31 24 -8 35 -44 26 -88 -5 -30 -5 -31 9
-13 8 11 15 26 15 34 0 15 -58 122 -66 122 -2 0 -4 -11 -4 -24z"/>
<path d="M3700 6687 c0 -5 -8 -6 -19 -2 -10 3 -24 -1 -31 -10 -10 -12 -9 -20
4 -40 9 -14 21 -25 27 -25 14 0 99 70 99 81 0 4 -18 7 -40 6 -22 -1 -40 -5
-40 -10z"/>
<path d="M2691 6544 c-26 -33 -26 -37 -2 -58 26 -24 53 -17 69 17 12 25 12 31
-4 48 -23 26 -39 24 -63 -7z m39 -19 c-7 -8 -16 -12 -21 -9 -13 8 -1 24 18 24
13 0 13 -3 3 -15z"/>
<path d="M3555 6219 c-11 -17 6 -50 33 -60 22 -8 29 -6 49 15 31 34 29 38 -12
30 -21 -4 -35 -2 -35 4 0 14 -28 23 -35 11z"/>
<path d="M2815 6116 c-38 -44 -46 -76 -24 -98 21 -20 28 -13 52 52 18 49 22
80 9 80 -4 0 -20 -15 -37 -34z"/>
<path d="M3198 6043 c6 -2 18 -2 25 0 6 3 1 5 -13 5 -14 0 -19 -2 -12 -5z"/>
<path d="M3160 5999 c-17 -30 -8 -59 22 -82 24 -18 31 -19 52 -7 14 7 23 17
20 22 -3 4 0 8 5 8 6 0 11 9 11 20 0 24 -16 26 -36 5 -19 -19 -63 -19 -70 -1
-3 8 -1 24 6 35 6 12 8 21 6 21 -3 0 -10 -9 -16 -21z"/>
<path d="M4705 6645 c-249 -34 -573 -91 -589 -104 -7 -6 -16 -41 -20 -80 -6
-73 -33 -170 -72 -263 -34 -81 -32 -126 10 -191 46 -72 61 -83 84 -66 15 13
16 12 4 -3 -12 -15 -9 -22 20 -57 18 -23 36 -41 39 -41 4 0 36 60 72 133 71
142 104 240 131 382 10 50 21 106 26 125 l8 35 1 -36 c4 -134 -93 -431 -198
-605 l-31 -51 23 -26 c27 -32 35 -33 54 -9 13 15 13 15 3 -6 -14 -28 -6 -56
23 -79 13 -10 49 -49 81 -88 32 -38 62 -74 67 -79 4 -5 37 36 72 90 134 206
259 559 298 844 16 122 25 99 10 -28 -19 -157 -61 -311 -141 -516 -59 -149
-75 -182 -151 -307 -63 -102 -68 -119 -44 -139 13 -11 20 -8 45 21 35 41 136
224 184 335 105 241 178 516 202 762 8 85 34 79 -211 47z m-495 -226 c-19
-132 -97 -348 -138 -382 -8 -6 -3 11 12 40 57 113 116 309 116 386 0 32 8 52
18 42 2 -2 -1 -41 -8 -86z m101 -13 c-18 -136 -97 -354 -150 -416 -17 -19 -15
-12 8 30 41 76 95 244 123 378 26 128 35 132 19 8z m289 -68 c-28 -144 -79
-298 -141 -422 -49 -98 -128 -220 -136 -212 -3 2 13 31 35 63 107 158 198 396
235 614 13 82 23 121 25 101 2 -18 -6 -83 -18 -144z m-95 20 c-28 -164 -114
-391 -192 -510 -14 -21 -28 -36 -31 -34 -2 3 5 17 16 33 75 107 168 359 199
541 9 59 19 97 21 85 2 -12 -4 -64 -13 -115z m195 -20 c-55 -273 -164 -549
-265 -666 -52 -61 -56 -45 -4 20 94 118 203 403 261 683 12 61 24 102 26 92 2
-10 -6 -68 -18 -129z"/>
<path d="M4926 6528 c-20 -174 -53 -323 -107 -488 -48 -147 -95 -251 -201
-449 -78 -144 -86 -165 -69 -175 17 -11 177 262 237 404 95 226 172 528 199
788 7 61 7 62 -17 62 -24 0 -25 -3 -42 -142z"/>
<path d="M5013 6576 c-6 -331 -168 -814 -383 -1137 l-38 -57 22 -20 c55 -50
108 -55 187 -14 131 66 238 287 351 722 67 261 64 421 -13 513 -27 33 -94 77
-116 77 -4 0 -9 -38 -10 -84z"/>
<path d="M2130 6250 c-124 -17 -285 -42 -352 -56 -28 -6 -28 -6 -28 -87 0 -45
7 -120 15 -167 18 -104 18 -110 2 -110 -8 0 -35 -11 -62 -25 -27 -13 -53 -21
-58 -18 -11 7 -3 306 8 336 4 10 22 25 39 34 43 22 16 28 -42 9 -86 -29 -153
-120 -170 -232 -15 -94 5 -222 69 -443 65 -221 136 -343 225 -386 78 -37 81
-15 18 132 -54 126 -99 274 -109 362 l-7 63 58 54 c32 30 60 54 63 54 3 0 19
-37 34 -83 50 -142 148 -365 180 -405 7 -9 13 -9 24 -1 17 15 10 37 -38 119
-45 76 -117 246 -152 357 -32 100 -70 277 -65 300 3 10 15 -27 27 -82 13 -55
30 -125 38 -155 24 -88 126 -338 175 -428 l45 -83 17 26 c20 31 20 33 -51 183
-30 64 -70 155 -88 202 -35 90 -89 316 -83 347 2 10 16 -38 32 -107 37 -165
55 -218 134 -390 88 -195 83 -188 115 -146 l27 34 -79 164 c-69 142 -84 181
-110 301 -17 76 -31 153 -30 170 l1 32 8 -30 c4 -16 15 -65 24 -108 31 -144
64 -241 129 -379 l64 -137 62 86 c55 75 60 87 48 102 -36 43 -105 212 -142
351 -42 158 -27 145 20 -17 42 -143 110 -302 136 -319 15 -9 49 31 49 56 0 9
-20 60 -44 111 -45 94 -96 253 -96 293 1 11 17 -31 36 -94 20 -63 54 -154 76
-203 38 -81 42 -86 58 -72 29 26 70 111 76 158 5 35 0 63 -20 122 -15 42 -31
100 -37 129 -6 28 -17 61 -25 74 -18 27 -52 28 -244 2z m258 -314 c34 -73 39
-91 21 -80 -18 11 -69 131 -90 212 -28 109 -22 121 10 22 15 -47 42 -116 59
-154z m-334 129 c23 -132 61 -248 121 -367 35 -71 59 -128 54 -128 -6 0 -37
56 -70 124 -57 118 -104 271 -123 397 -9 55 8 31 18 -26z"/>
<path d="M3634 5733 c-32 -20 -106 -62 -164 -92 -156 -83 -144 -37 -148 -595
l-3 -458 63 7 c35 4 88 13 119 21 103 26 95 39 95 -163 l-1 -178 50 1 c28 1
76 11 107 22 66 23 263 134 358 200 187 132 310 309 310 446 0 52 -15 104 -36
127 -16 18 -19 17 -68 -29 -77 -73 -205 -165 -317 -227 -82 -46 -122 -62 -227
-87 -70 -17 -165 -41 -212 -54 -203 -57 -222 -48 -36 16 261 90 517 245 704
424 39 38 72 63 72 55 0 -8 -24 -37 -52 -65 -132 -128 -317 -259 -470 -335
-59 -29 -107 -54 -105 -55 7 -8 153 41 222 75 93 45 245 157 365 270 83 78 85
80 70 105 -23 38 -263 296 -276 296 -6 0 -40 -26 -75 -58 -67 -62 -226 -175
-294 -211 -53 -27 -242 -94 -228 -80 6 6 51 25 100 43 152 55 291 143 418 265
56 54 64 65 53 79 -7 8 -69 73 -138 144 -147 151 -155 153 -256 91z m36 -78
c-24 -25 -218 -130 -226 -122 -3 2 26 20 63 40 37 20 93 52 123 71 66 42 71
44 40 11z m143 -1 c-16 -41 -293 -222 -325 -212 -6 2 42 33 107 69 66 35 142
85 170 111 57 54 56 53 48 32z m2 -120 c-82 -75 -188 -137 -297 -176 -89 -31
-99 -21 -12 12 129 48 219 102 314 188 30 27 57 48 60 45 3 -3 -26 -34 -65
-69z m132 -12 c-15 -11 -50 -42 -78 -71 -78 -81 -264 -191 -373 -220 -54 -14
-33 1 39 29 125 48 263 136 348 222 31 32 65 58 75 58 12 0 10 -5 -11 -18z
m98 -200 c-128 -122 -348 -254 -511 -307 -128 -42 -110 -25 25 24 148 54 343
173 466 286 80 72 97 70 20 -3z m125 -24 c0 -44 -331 -279 -507 -359 -48 -21
-212 -79 -222 -79 -15 1 50 31 109 51 158 53 421 214 550 336 36 34 66 62 68
63 1 0 2 -5 2 -12z m74 -82 c-17 -45 -360 -288 -524 -371 -42 -21 -250 -95
-269 -95 -16 0 21 16 129 55 68 25 156 64 194 87 133 77 338 222 404 284 37
34 68 61 70 59 1 -1 0 -10 -4 -19z m-374 -788 c27 -13 49 -26 50 -30 1 -22
-96 8 -119 36 -9 10 -11 26 -6 43 l7 28 10 -27 c6 -19 25 -34 58 -50z"/>
<path d="M2685 5651 c-39 -24 -53 -40 -171 -196 -54 -71 -123 -164 -155 -205
-51 -68 -102 -142 -152 -221 -17 -26 -17 -29 -3 -29 9 0 50 -31 91 -70 192
-177 466 -308 704 -335 105 -12 71 15 -60 47 -240 59 -336 103 -494 221 -105
79 -193 162 -183 173 4 3 26 -13 50 -36 94 -92 288 -225 389 -266 106 -43 342
-106 352 -93 2 2 7 21 10 42 5 30 3 37 -11 37 -39 0 -233 50 -311 80 -88 34
-250 137 -339 216 -69 60 -60 71 10 11 85 -73 242 -172 323 -207 83 -34 190
-64 273 -75 l52 -7 0 50 0 51 -47 6 c-183 24 -410 131 -543 255 -40 37 -41 39
-10 18 19 -12 69 -47 110 -76 121 -87 233 -137 374 -166 117 -24 116 -24 116
33 l0 49 -57 7 c-79 10 -205 50 -283 91 -71 37 -245 162 -237 170 3 3 45 -23
94 -58 48 -35 104 -73 123 -85 58 -35 180 -79 255 -92 39 -7 78 -14 88 -16 14
-3 17 5 17 51 0 53 -1 54 -28 54 -52 0 -179 38 -261 78 -95 47 -206 124 -222
155 -11 20 -9 20 17 -4 117 -106 343 -208 462 -209 29 0 32 3 32 29 0 16 2 36
6 44 4 11 -10 17 -55 26 -140 28 -313 112 -381 187 -29 32 -21 27 84 -45 91
-62 155 -92 247 -115 95 -23 96 -23 102 32 3 26 4 48 3 49 -1 1 -35 9 -76 17
-93 19 -222 82 -281 136 l-44 41 75 -48 c97 -61 199 -103 266 -110 l54 -6 0
40 0 39 -66 17 c-91 25 -163 58 -207 97 -46 40 -49 63 -4 26 45 -36 112 -71
176 -90 75 -22 91 -21 91 7 0 40 -28 65 -94 85 -35 11 -88 35 -117 55 -49 32
-100 57 -117 57 -4 0 -20 -8 -37 -19z"/>
<path d="M2129 4845 c-8 -83 8 -163 48 -228 53 -87 94 -130 206 -214 180 -134
361 -199 451 -164 17 7 12 13 -39 54 -63 49 -118 72 -265 111 -152 40 -189 55
-236 102 -93 90 -139 184 -153 312 -7 59 -8 62 -12 27z"/>
<path d="M4837 8638 c44 -48 196 -256 263 -362 197 -313 333 -741 371 -1165
15 -173 6 -607 -15 -761 -56 -393 -151 -717 -297 -1014 -227 -460 -644 -922
-1034 -1145 -152 -87 -346 -178 -451 -209 -117 -37 -434 -100 -506 -102 -5 0
-8 -10 -8 -22 0 -12 -6 -29 -14 -37 -7 -9 -44 -74 -80 -144 -77 -149 -259
-426 -356 -541 -123 -149 -284 -285 -336 -286 -11 0 -63 21 -115 46 -155 77
-259 184 -321 331 -28 64 -48 185 -68 412 -12 131 -38 281 -66 384 -56 202
-191 388 -399 548 -248 192 -273 216 -324 322 -55 113 -66 174 -64 353 3 131
7 175 24 230 32 104 76 186 139 261 52 62 57 72 52 106 -2 20 -8 37 -13 37
-11 0 -12 37 -1 43 4 3 3 53 -2 111 l-10 105 -102 -102 c-56 -56 -138 -136
-181 -177 -130 -124 -221 -260 -277 -415 -24 -68 -66 -227 -66 -253 0 -20 17
-5 23 20 3 13 14 59 25 103 16 66 62 193 91 254 4 8 20 18 34 22 15 4 45 26
66 48 22 23 49 41 60 41 12 0 21 5 21 10 0 6 6 10 13 10 34 0 36 -105 4 -220
-23 -79 -38 -241 -31 -319 15 -163 78 -338 162 -450 14 -19 21 -36 15 -38 -5
-2 -19 -10 -29 -18 -18 -15 -18 -15 1 -8 11 3 25 10 31 14 6 5 26 -4 50 -24
21 -19 66 -52 100 -75 72 -48 100 -84 85 -110 -6 -9 -11 -13 -11 -8 0 5 -12
-1 -27 -15 -14 -13 -23 -19 -20 -13 5 9 -3 9 -31 3 -39 -10 -47 -11 -155 -30
-66 -11 -69 -11 -95 13 -15 14 -48 38 -74 54 -27 16 -48 36 -48 45 0 9 -7 22
-15 29 -8 7 -15 19 -15 26 0 8 -7 14 -15 14 -9 0 -18 8 -22 18 -3 9 -17 32
-30 50 -13 17 -29 46 -35 63 -6 16 -12 28 -14 26 -3 -2 0 -16 6 -31 9 -24 7
-28 -16 -37 -32 -12 -54 3 -54 36 0 27 23 75 42 86 26 16 -4 22 -32 6 -31 -19
-34 -17 -44 26 -6 25 -3 29 24 39 38 13 34 33 -6 33 -26 0 -29 3 -29 35 0 31
3 35 28 38 l27 3 0 90 c0 82 -9 111 -24 74 -9 -23 -36 -18 -37 8 -1 21 -1 21
-9 -3 -4 -14 -8 -72 -9 -130 -2 -209 59 -387 194 -565 38 -49 71 -92 75 -95
22 -18 146 -170 173 -213 73 -116 131 -297 168 -527 58 -361 129 -545 276
-715 78 -91 180 -172 274 -220 36 -19 80 -46 98 -61 26 -22 47 -28 109 -35 42
-4 1448 -8 3124 -8 2757 -1 3048 0 3062 15 9 8 16 21 16 28 0 33 -22 36 -312
36 -167 0 -288 4 -288 9 0 5 22 25 48 45 75 55 126 115 168 201 l39 79 0 125
c0 118 -2 130 -28 183 -37 76 -118 163 -181 196 -47 24 -62 26 -203 30 -187 5
-230 -6 -295 -76 -130 -138 -157 -408 -61 -597 41 -81 71 -117 131 -152 23
-14 42 -29 42 -34 0 -5 -164 -9 -390 -9 l-390 0 -29 57 c-16 32 -70 125 -120
207 -50 83 -91 154 -91 159 0 6 7 15 15 21 12 9 14 35 8 163 -7 176 3 163
-140 188 -48 8 -87 16 -88 18 -1 1 1 31 4 67 5 49 12 71 29 88 17 17 22 33 22
76 0 60 16 86 55 86 37 0 65 30 73 80 l7 44 150 23 c83 12 227 31 320 42 241
28 301 58 351 176 14 35 16 113 15 762 -1 398 1 750 5 783 l6 59 52 17 c36 12
66 33 103 72 75 77 101 81 189 28 65 -38 74 -41 145 -41 57 0 82 4 95 16 22
19 95 35 207 45 l79 7 61 -60 c65 -62 139 -119 194 -147 39 -20 82 -20 243 -1
69 7 192 17 274 20 174 8 229 23 299 86 105 92 186 233 233 405 53 196 39 544
-32 760 -74 230 -240 423 -403 471 -59 17 -191 14 -243 -6 -49 -18 -178 -41
-319 -56 -77 -8 -153 -22 -168 -30 -39 -20 -118 -98 -168 -166 -36 -48 -49
-58 -89 -68 -27 -7 -66 -26 -88 -42 l-40 -29 -122 6 c-66 4 -133 4 -148 0 -14
-3 -56 -34 -93 -67 -78 -71 -100 -73 -163 -15 -21 19 -54 40 -74 47 l-36 13 0
141 c0 132 -2 145 -26 193 -14 29 -45 72 -69 96 -53 55 -71 61 -620 203 -162
42 -192 47 -295 47 -100 1 -127 -3 -207 -28 -56 -18 -93 -34 -93 -42 0 -8 11
-53 25 -101 14 -49 40 -167 57 -263 32 -173 32 -179 32 -505 1 -352 -3 -400
-60 -680 -56 -274 -144 -540 -259 -782 -93 -195 -228 -406 -379 -593 -272
-336 -693 -633 -1001 -707 -60 -14 -132 -32 -159 -40 -27 -8 -94 -17 -150 -20
l-101 -6 3 -36 c2 -20 -1 -47 -7 -61 -8 -22 -10 -18 -10 28 -1 28 -1 55 0 59
0 4 -9 10 -20 15 -50 18 -5 40 109 53 72 8 134 21 250 51 165 44 220 65 339
129 387 206 755 592 1003 1051 155 287 293 710 350 1074 19 127 22 184 23 465
0 308 -1 326 -28 470 -36 195 -77 347 -137 510 -149 405 -400 743 -675 909
-74 45 -88 46 -48 4z m1268 -1046 c121 -13 632 -150 715 -192 21 -11 52 -38
70 -60 33 -42 37 -66 5 -30 -31 34 -545 189 -656 198 -65 4 -67 4 -105 -31
l-38 -35 -2 -1601 c-2 -1434 -4 -1604 -18 -1626 -15 -23 -15 -23 60 -55 72
-30 187 -55 506 -110 65 -11 130 -25 145 -31 l28 -11 -28 -10 c-37 -13 -277
27 -644 108 l-82 18 -93 -26 c-109 -31 -372 -84 -473 -94 -64 -7 -67 -8 -35
-15 63 -14 373 -68 455 -79 123 -17 152 -27 159 -52 3 -13 2 -26 -2 -30 -5 -5
-51 0 -103 11 -81 17 -224 40 -580 93 -70 11 -87 9 -235 -20 -87 -17 -280 -54
-429 -82 -148 -28 -313 -60 -365 -70 -87 -18 -406 -66 -508 -77 -24 -3 -48 -1
-54 5 -10 10 105 41 252 67 95 16 262 48 680 129 157 31 355 69 440 86 85 16
214 43 285 60 72 17 159 35 195 41 91 14 247 57 291 80 45 23 75 69 84 129 8
58 14 2618 7 2934 l-5 240 -34 37 c-40 44 -77 59 -154 61 l-54 1 60 29 c65 31
51 31 260 10z m-253 -179 c40 -45 65 -143 38 -143 -5 0 -10 10 -10 22 0 12
-13 45 -30 75 -16 29 -30 55 -30 58 0 11 18 4 32 -12z m516 -39 c37 -15 117
-39 332 -95 159 -43 180 -65 180 -194 0 -60 -3 -75 -15 -75 -11 0 -15 12 -15
50 0 61 -19 111 -51 134 -25 18 -191 71 -324 104 -44 11 -98 26 -121 33 -57
17 -92 6 -110 -36 -12 -29 -14 -91 -12 -334 2 -165 0 -303 -5 -307 -21 -21
-26 37 -29 339 l-3 328 37 35 c43 39 77 43 136 18z m2424 -52 c118 -58 234
-206 298 -379 55 -151 80 -485 50 -653 -28 -156 -102 -319 -184 -403 -102
-106 -199 -139 -326 -113 -389 81 -595 785 -381 1303 36 88 74 145 135 201 71
66 122 82 251 79 80 -2 98 -6 157 -35z m-487 -32 c-14 -14 -53 -26 -125 -39
-112 -21 -210 -48 -210 -58 0 -9 116 6 210 27 46 10 87 17 89 14 20 -20 -133
-71 -267 -89 -36 -5 -62 -15 -80 -32 -19 -17 -22 -23 -9 -19 10 3 62 13 115
22 53 9 119 25 146 36 27 10 50 17 53 15 2 -3 -6 -16 -19 -30 -23 -26 -96 -48
-261 -79 -46 -9 -72 -19 -78 -30 -8 -15 -5 -18 18 -18 70 2 266 29 276 39 17
17 7 18 -60 12 -74 -8 -75 4 0 14 28 3 59 9 69 11 14 4 15 1 3 -38 -11 -40
-15 -43 -56 -49 -253 -38 -270 -42 -280 -61 -9 -17 -7 -19 23 -13 40 6 265 35
279 35 11 0 12 -27 1 -34 -5 -3 -81 -15 -170 -28 -142 -19 -161 -24 -166 -42
-3 -11 -4 -22 -2 -23 2 -2 65 3 141 12 158 17 195 19 195 6 0 -9 -68 -23 -215
-42 -118 -16 -135 -23 -135 -53 0 -22 3 -24 33 -20 17 2 81 11 140 19 126 18
167 19 167 5 0 -5 -1 -10 -2 -10 -2 0 -79 -11 -172 -25 -93 -14 -171 -25 -173
-25 -2 0 -3 -14 -3 -31 l0 -31 68 7 c38 4 115 15 173 24 57 10 106 17 108 14
14 -12 -29 -24 -139 -38 -217 -27 -210 -25 -216 -51 -11 -42 1 -46 107 -38 54
3 99 4 99 1 0 -2 -45 -10 -100 -17 -81 -10 -100 -15 -100 -29 1 -35 27 -211
32 -216 3 -3 70 4 149 15 79 11 157 19 174 19 26 -2 27 -2 5 -6 -14 -2 -81
-13 -150 -24 -69 -11 -135 -23 -147 -26 -26 -6 -29 -29 -8 -59 12 -19 20 -20
57 -13 24 4 66 8 93 7 48 0 46 -1 -30 -15 -113 -20 -108 -18 -90 -53 13 -24
20 -29 43 -25 15 3 83 12 152 20 69 9 133 18 143 21 9 3 17 1 17 -4 0 -11 -29
-17 -155 -32 -49 -6 -97 -12 -105 -14 -8 -2 -27 -7 -42 -10 -18 -4 -28 -13
-28 -25 0 -34 25 -44 97 -38 l68 6 -64 -17 c-69 -18 -81 -30 -55 -56 13 -14
30 -16 93 -12 l76 5 -63 -13 c-71 -15 -77 -19 -68 -41 5 -14 19 -16 98 -11
l93 5 -75 -12 c-65 -10 -75 -15 -73 -32 5 -67 -184 238 -228 368 -60 175 -65
454 -13 661 27 104 97 234 166 308 57 60 68 67 118 76 108 20 225 39 245 41
19 1 19 1 0 -19z m-545 -279 c0 -4 -22 -56 -50 -114 -61 -130 -77 -187 -89
-300 -13 -135 16 -324 69 -444 19 -43 19 -43 -1 -43 -11 0 -17 -4 -14 -10 3
-5 1 -10 -5 -10 -7 0 -9 8 -5 21 5 15 4 19 -4 15 -13 -9 -31 30 -74 164 -28
87 -30 106 -30 235 0 123 3 151 27 230 34 114 66 180 109 228 32 34 67 49 67
28z m-376 -68 c-55 -51 -86 -103 -117 -198 -39 -118 -50 -204 -44 -324 10
-195 74 -355 191 -479 58 -60 64 -71 40 -62 -156 60 -252 234 -285 517 -11
101 -10 118 10 226 12 64 31 141 42 170 38 100 124 187 184 187 16 0 13 -7
-21 -37z m197 -65 c-21 -46 -42 -95 -48 -109 -13 -30 -65 -47 -177 -56 l-68
-6 7 24 c25 80 74 150 138 198 16 12 91 26 159 30 l27 1 -38 -82z m-693 56
c20 -6 16 -10 -33 -35 -50 -25 -86 -57 -142 -126 -15 -18 -35 -24 -108 -33
-49 -6 -91 -13 -94 -16 -2 -2 37 -1 87 2 88 7 91 6 86 -13 -5 -17 -19 -22 -97
-33 -130 -17 -145 -32 -24 -24 102 7 108 4 87 -37 -8 -15 -21 -19 -59 -19 -65
0 -141 -11 -141 -20 0 -4 41 -8 92 -9 51 -1 93 -3 94 -4 1 -1 -2 -12 -6 -24
-8 -19 -19 -22 -104 -28 -53 -4 -96 -11 -96 -16 0 -5 43 -9 95 -9 52 0 95 -4
95 -9 0 -31 -14 -41 -60 -41 -66 0 -140 -11 -140 -21 0 -5 42 -10 93 -11 85
-3 92 -5 95 -24 3 -19 -3 -22 -50 -27 -29 -4 -70 -7 -90 -7 -27 0 -38 -4 -38
-15 0 -12 17 -15 96 -15 86 0 95 -2 92 -17 -3 -15 -20 -20 -96 -27 -82 -8 -92
-11 -92 -28 0 -19 6 -20 103 -16 97 3 102 2 105 -18 3 -18 -4 -22 -44 -28 -26
-3 -69 -6 -96 -6 -42 0 -49 -3 -46 -17 3 -16 16 -18 101 -19 53 -1 100 -4 103
-7 16 -15 -13 -25 -96 -31 l-90 -7 16 -30 c10 -20 21 -28 32 -25 9 2 49 8 88
11 55 5 73 4 82 -8 10 -12 -1 -17 -74 -30 -48 -9 -89 -18 -92 -21 -3 -3 1 -13
8 -21 11 -13 29 -15 110 -9 68 5 99 3 104 -5 4 -6 6 -11 4 -11 -12 0 -172 -30
-175 -33 -1 -2 5 -11 15 -20 17 -15 25 -15 97 -2 44 9 85 13 93 10 21 -8 4
-25 -26 -25 -15 0 -49 -6 -76 -13 -38 -10 -45 -15 -35 -24 19 -15 110 -33 167
-33 55 -1 120 -14 135 -29 7 -7 -31 -8 -119 -5 -71 2 -135 4 -142 4 -40 0
-166 159 -236 298 -88 174 -88 442 0 621 40 81 154 206 199 217 77 19 203 28
243 18z m292 -100 c0 -3 -5 -14 -10 -24 -6 -10 -21 -61 -35 -112 -14 -51 -33
-104 -43 -118 -10 -14 -24 -45 -31 -70 -19 -64 -26 -31 -11 59 13 80 61 211
86 232 8 6 14 16 14 21 0 6 -16 -10 -36 -34 -38 -45 -60 -86 -93 -178 -13 -36
-20 -47 -20 -31 l-1 24 -90 -6 c-58 -5 -90 -3 -90 3 0 17 87 185 102 197 29
24 258 57 258 37z m-350 -117 c-58 -116 -75 -192 -74 -327 0 -116 16 -185 65
-282 48 -95 131 -177 150 -147 5 9 36 13 103 14 53 0 96 2 96 4 0 3 -10 15
-22 28 -41 43 -13 31 40 -18 l53 -49 -53 -1 c-29 0 -75 -4 -103 -9 -147 -27
-141 -28 -193 26 -68 70 -147 228 -161 321 -23 152 -9 268 50 406 27 64 71
127 89 127 4 0 -14 -42 -40 -93z m-459 -69 c-5 -18 -20 -93 -33 -167 -20 -117
-26 -135 -46 -144 -12 -6 -25 -8 -28 -5 -3 3 -5 46 -6 94 0 108 24 183 79 239
40 41 51 35 34 -17z m1749 -67 c0 -12 -77 -24 -111 -19 -15 3 1 8 41 15 36 6
66 11 68 12 1 0 2 -3 2 -8z m-1101 -135 c-9 -8 -10 -5 -5 14 3 14 7 34 7 45 1
11 4 5 6 -14 3 -19 -1 -39 -8 -45z m1056 43 c-22 -4 -51 -8 -65 -7 -35 1 34
15 75 16 25 0 23 -2 -10 -9z m-187 -26 c-10 -2 -28 -2 -40 0 -13 2 -5 4 17 4
22 1 32 -1 23 -4z m249 -40 c-10 -9 -310 -62 -320 -56 -18 11 8 23 51 24 26 0
90 8 142 18 105 21 137 24 127 14z m48 -192 c-6 -6 -41 -12 -80 -15 l-70 -6
55 14 c69 17 107 19 95 7z m-1955 -1020 c0 -514 4 -789 11 -814 5 -21 22 -52
37 -69 30 -32 94 -50 355 -98 115 -20 119 -21 149 -3 17 10 40 31 52 46 21 28
21 35 24 692 1 365 6 674 10 686 9 24 22 -616 22 -1091 0 -267 -1 -287 -20
-318 -33 -54 -75 -74 -143 -68 -49 5 -203 36 -390 77 -54 13 -99 46 -125 93
-23 41 -26 287 -17 1074 6 502 10 591 21 581 12 -10 14 -140 14 -788z m1572
772 c27 -25 22 -43 -12 -43 -18 0 -33 7 -38 18 -20 39 15 57 50 25z m-101 -19
c7 -8 10 -17 7 -20 -3 -2 -46 -9 -97 -15 -82 -10 -94 -9 -118 7 -33 21 -30 22
80 38 89 13 110 11 128 -10z m-1810 -795 c3 -587 1 -732 -9 -769 -17 -56 -67
-103 -129 -124 -73 -24 -299 -72 -493 -106 -96 -16 -224 -39 -285 -49 -142
-25 -245 -35 -225 -22 8 5 67 19 130 31 63 12 165 35 226 51 61 16 173 40 250
54 76 13 197 38 268 55 144 34 183 56 216 120 19 38 20 60 20 588 0 576 9 965
20 921 4 -14 9 -352 11 -750z m-4691 731 c0 -5 -11 -10 -25 -10 -14 0 -25 5
-25 10 0 6 11 10 25 10 14 0 25 -4 25 -10z m7028 3 c-10 -2 -28 -2 -40 0 -13
2 -5 4 17 4 22 1 32 -1 23 -4z m-7268 -40 c0 -5 -14 -24 -30 -43 -16 -19 -30
-38 -30 -41 0 -4 -9 -9 -20 -12 -30 -8 -25 2 27 55 49 50 53 53 53 41z m7459
-7 c-10 -9 -79 -14 -74 -5 4 5 22 9 42 9 20 0 34 -2 32 -4z m-101 -13 c-10 -2
-26 -2 -35 0 -10 3 -2 5 17 5 19 0 27 -2 18 -5z m-128 -19 c-91 -16 -147 -17
-155 -4 -5 8 50 13 200 17 17 0 -4 -5 -45 -13z m310 -55 c0 -5 -3 -9 -7 -9 -5
0 -74 -9 -155 -21 -157 -23 -182 -21 -219 11 l-24 21 24 -12 c28 -14 186 -6
291 15 66 12 90 11 90 -5z m-2064 -96 c-40 -60 -60 -153 -46 -216 36 -173 163
-280 276 -232 30 12 36 18 24 25 -8 5 -28 10 -43 10 -34 0 -95 30 -124 62 -34
36 -73 129 -73 173 0 63 19 116 55 152 29 29 40 33 84 33 94 0 168 -55 199
-149 19 -55 15 -166 -7 -210 -24 -46 -120 -136 -156 -145 -68 -17 -177 47
-242 142 -50 74 -67 129 -60 198 8 75 58 162 111 191 30 16 31 10 2 -34z
m-5616 18 c0 -14 -49 -68 -50 -55 0 11 38 64 46 64 2 0 4 -4 4 -9z m210 -113
c0 -36 -17 -56 -45 -51 -14 3 -25 10 -25 15 0 14 21 52 33 60 17 10 37 -3 37
-24z m-22 -83 c2 -1 0 -14 -4 -29 -5 -21 -12 -26 -35 -26 -25 0 -29 4 -29 28
0 16 3 32 7 36 6 6 53 0 61 -9z m4762 -520 c0 -214 3 -412 6 -440 8 -66 -23
-115 -80 -129 -48 -12 -67 -1 -84 50 -17 50 -8 95 25 135 24 28 31 31 71 26
l45 -5 -7 155 c-8 184 5 724 15 648 4 -27 8 -225 9 -440z m-4790 385 c0 -46
-22 -63 -47 -37 -11 10 -13 24 -8 46 5 24 12 31 31 31 21 0 24 -4 24 -40z
m-12 -138 c3 -40 1 -43 -19 -40 -29 4 -43 29 -35 62 5 21 12 27 29 24 18 -2
23 -10 25 -46z m8 -127 c7 -52 4 -59 -25 -50 -12 4 -24 20 -30 42 -12 43 -8
53 24 53 21 0 25 -6 31 -45z m-346 -43 c0 -39 -14 -62 -37 -62 -9 0 -13 14
-13 43 0 48 5 57 32 57 14 0 18 -8 18 -38z m355 -32 c-3 -5 -16 -10 -28 -9
-21 0 -21 1 -2 9 28 12 37 12 30 0z m28 -63 c11 -34 10 -35 -28 -39 -28 -3
-30 -1 -33 35 -3 37 -2 38 24 35 20 -2 30 -11 37 -31z m45 -109 c16 -26 15
-28 -5 -48 l-22 -20 -26 33 c-30 40 -31 54 -7 60 30 8 43 3 60 -25z m70 -97
c30 -25 28 -29 -15 -37 -29 -5 -39 -3 -50 12 -12 16 -11 20 4 31 23 17 34 16
61 -6z m5493 -16 c41 -22 87 -89 94 -139 9 -58 -17 -117 -73 -166 -38 -34 -52
-40 -89 -40 -74 0 -125 38 -162 120 -11 25 -21 54 -21 65 0 44 23 97 59 135
36 38 41 40 100 40 36 0 74 -6 92 -15z m-5411 -50 c15 -18 13 -21 -20 -30 -33
-8 -73 19 -50 35 22 14 56 12 70 -5z m-480 -56 c15 -27 9 -59 -13 -73 -19 -12
-32 0 -43 42 -12 44 35 70 56 31z m557 -15 c12 -31 -53 -47 -77 -19 -10 12 -8
16 11 24 36 15 59 13 66 -5z m68 -54 c9 -14 -13 -40 -34 -40 -10 0 -26 6 -37
14 -18 14 -18 15 6 25 33 13 57 13 65 1z m-549 -47 l25 -27 -27 -14 c-26 -14
-29 -13 -52 14 -23 26 -23 28 -6 41 25 18 32 17 60 -14z m637 -25 c9 -13 6
-21 -13 -36 -28 -22 -40 -20 -58 9 -10 16 -11 24 -1 35 16 19 59 14 72 -8z
m-558 -65 c24 -27 25 -28 4 -35 -39 -15 -91 28 -62 50 23 17 29 16 58 -15z
m467 10 c18 -16 18 -17 -4 -30 -22 -12 -21 -13 13 -7 33 5 38 2 101 -64 62
-66 125 -172 143 -242 l7 -25 -16 22 c-18 25 -36 25 -61 0 -10 -10 -24 -16
-31 -13 -7 3 -19 -3 -26 -12 -22 -29 -150 -82 -199 -82 -21 0 -31 14 -77 113
-68 141 -102 195 -127 199 -11 2 -20 9 -20 17 0 9 36 26 100 48 58 19 114 45
135 62 42 36 39 35 62 14z m178 -25 c23 -25 13 -38 -31 -38 -35 0 -56 24 -39
45 18 21 46 19 70 -7z m4090 -16 c0 -18 -647 -141 -681 -130 -6 2 88 23 208
47 120 24 263 54 318 67 105 24 155 29 155 16z m-4677 -63 c-13 -13 -55 -8
-60 7 -2 7 4 19 13 29 16 15 18 15 38 -4 15 -15 17 -24 9 -32z m665 -35 c-25
-24 -63 -21 -78 6 -10 18 -7 22 22 35 31 13 34 13 51 -7 15 -17 16 -24 5 -34z
m-598 -19 c0 -7 -7 -18 -15 -25 -12 -10 -18 -8 -35 11 -22 28 -25 46 -7 52 16
5 57 -22 57 -38z m668 -73 l23 -41 -26 -7 c-29 -7 -50 6 -71 48 -14 27 -13 29
8 38 33 13 40 8 66 -38z m-611 14 c31 -27 30 -31 -9 -41 -21 -5 -30 -2 -43 19
-31 47 5 62 52 22z m58 -76 c15 -29 15 -31 -9 -41 -51 -23 -79 24 -34 55 28
20 25 21 43 -14z m616 -57 c14 -37 5 -53 -31 -53 -23 0 -33 6 -42 26 -11 22
-10 28 7 40 29 22 54 17 66 -13z m-567 -45 c23 -33 20 -57 -8 -64 -31 -7 -44
1 -57 33 -18 49 35 74 65 31z m476 -65 c0 -7 -6 -13 -12 -13 -7 0 -69 -21
-138 -46 -170 -61 -198 -67 -210 -44 -6 10 -10 23 -10 29 0 6 60 29 133 52
166 53 197 67 198 93 0 15 6 10 20 -19 10 -22 19 -46 19 -52z m124 -15 c11
-42 7 -48 -29 -48 -29 0 -36 4 -41 26 -7 29 7 44 42 44 14 0 24 -8 28 -22z
m-543 -59 c11 -28 11 -33 -7 -46 -28 -20 -47 -12 -58 25 -7 26 -6 36 5 43 26
17 47 9 60 -22z m457 -129 l0 -35 -9 40 c-4 22 -8 56 -7 75 l0 35 9 -40 c4
-22 8 -56 7 -75z m116 64 c8 -32 7 -33 -36 -41 -31 -4 -36 -2 -41 18 -12 44
-9 49 32 49 34 0 40 -4 45 -26z m1456 -44 c0 -17 -29 -43 -43 -37 -16 6 -13
40 6 65 9 11 13 11 24 -4 7 -10 13 -21 13 -24z m-1997 -23 c11 -33 -5 -57 -38
-57 -24 0 -35 17 -35 55 0 44 58 46 73 2z m1947 -36 c16 -32 12 -41 -20 -41
-34 0 -49 22 -30 45 17 21 37 19 50 -4z m-1394 -15 c8 -33 -2 -46 -36 -46 -22
0 -29 6 -34 25 -9 34 -1 45 34 45 23 0 31 -5 36 -24z m1537 -21 c28 -19 84
-46 122 -60 83 -32 95 -40 95 -70 0 -29 -8 -36 -29 -25 -9 5 -57 25 -107 44
-104 39 -170 71 -179 87 -6 9 30 59 42 59 2 0 27 -16 56 -35z m2057 -19 c41
-8 152 -22 245 -31 214 -21 245 -28 245 -58 0 -12 -3 -32 -6 -45 -5 -18 -8
-20 -18 -9 -33 42 -427 105 -591 96 -53 -4 -60 -7 -63 -26 -4 -29 -100 -58
-242 -73 -58 -6 -201 -29 -318 -51 -117 -22 -217 -37 -222 -34 -11 7 -14 125
-3 125 3 0 77 16 162 35 193 43 491 83 631 84 58 1 139 -5 180 -13z m-4124
-31 c3 -14 4 -32 0 -40 -7 -18 -66 -21 -66 -2 0 6 -3 22 -6 34 -4 15 -1 22 13
26 40 10 53 7 59 -18z m1872 13 c34 -34 -4 -86 -54 -74 -20 5 -24 11 -18 29 8
27 33 57 49 57 6 0 16 -5 23 -12z m567 -1 c17 -13 17 -15 -3 -35 -39 -39 -77
-18 -52 27 12 24 29 26 55 8z m405 -32 c69 -8 139 -15 157 -15 29 0 33 -3 38
-37 3 -21 10 -60 15 -87 6 -27 9 -50 7 -52 -1 -2 -43 -12 -91 -23 -51 -11 -97
-27 -107 -38 -15 -15 -19 -42 -25 -164 -7 -144 -7 -147 15 -154 11 -3 21 -11
21 -17 0 -15 -111 -197 -187 -305 l-64 -93 -494 0 c-272 0 -495 2 -495 5 0 3
53 40 118 82 64 42 147 100 183 129 81 65 215 212 292 321 64 92 227 361 227
376 0 5 12 30 28 54 l27 45 105 -6 c58 -4 161 -13 230 -21z m-2302 -28 c2 -10
1 -29 -2 -43 -5 -19 -13 -24 -36 -24 -28 0 -30 2 -30 39 0 22 6 42 13 45 23
10 52 1 55 -17z m1836 -36 c10 -11 16 -30 14 -43 -2 -19 -8 -23 -32 -21 -16 1
-36 8 -43 16 -12 11 -10 18 7 40 25 32 32 33 54 8z m-1944 -41 c0 -29 -5 -42
-21 -50 -38 -21 -283 -120 -295 -120 -11 0 -24 21 -24 40 0 4 42 24 93 45 172
68 227 96 227 117 0 11 5 16 10 13 6 -3 10 -24 10 -45z m1361 13 c35 -21 36
-23 4 -53 -20 -19 -30 -22 -43 -14 -21 14 -27 50 -12 70 15 18 16 18 51 -3z
m-1773 -30 c3 -17 -3 -26 -23 -33 -32 -12 -41 -8 -47 25 -6 31 -1 37 37 33 22
-2 31 -9 33 -25z m6112 -20 c0 -5 -18 -18 -40 -31 -44 -25 -76 -78 -107 -177
-14 -47 -18 -91 -17 -205 1 -137 2 -150 33 -235 18 -49 35 -97 38 -107 8 -25
-29 -40 -79 -31 l-43 8 45 5 c30 3 46 10 48 21 2 13 -9 15 -81 11 -105 -5
-129 13 -30 23 94 9 96 10 82 36 -11 21 -16 21 -99 16 -88 -6 -110 0 -110 31
0 11 19 13 90 10 50 -2 90 0 90 4 0 33 -13 38 -105 38 -75 0 -94 3 -99 16 -13
33 -6 35 84 32 l91 -3 -3 25 c-3 24 -6 25 -98 30 -90 5 -95 6 -98 28 -4 23 -3
23 92 20 l96 -3 0 34 c0 25 -3 31 -12 25 -7 -5 -50 -8 -95 -6 l-83 4 0 29 c0
31 2 32 157 34 25 0 33 5 36 23 4 23 3 23 -85 21 -49 -1 -91 1 -94 4 -3 3 -3
15 1 26 6 19 14 21 102 21 71 0 94 3 91 13 -3 7 -32 14 -80 17 -84 5 -98 12
-81 38 9 14 24 17 92 14 50 -1 81 2 81 8 0 5 -8 10 -17 10 -15 0 -16 2 -3 10
11 7 -5 10 -52 10 -38 0 -68 4 -68 8 0 4 29 27 64 50 63 41 66 42 145 40 45 0
84 2 88 5 9 9 33 9 33 0z m-5586 -19 c10 -25 7 -59 -6 -72 -20 -20 -48 -14
-59 15 -12 33 -6 51 23 63 32 12 35 12 42 -6z m1768 -53 c-5 -60 -31 -76 -72
-43 l-22 18 27 32 c38 45 71 41 67 -7z m2053 18 c98 -10 218 -28 344 -51 35
-7 74 -21 85 -31 24 -21 44 -22 -184 8 -232 31 -278 35 -451 35 -175 0 -177 0
-183 -22 -3 -13 -6 -34 -6 -48 0 -14 -5 -32 -10 -40 -8 -11 -10 2 -8 45 l3 60
-37 3 -38 3 0 -53 c0 -29 -3 -63 -6 -75 -12 -43 -24 -12 -24 58 l0 70 -27 -3
c-28 -3 -28 -4 -31 -80 -3 -70 -5 -78 -22 -78 -16 0 -20 7 -20 33 0 57 -13
109 -27 114 -24 9 -33 -17 -33 -93 l0 -70 -142 -13 c-244 -21 -513 -59 -620
-86 l-28 -7 1 63 c0 35 4 84 7 109 8 54 15 57 202 89 436 74 893 96 1255 60z
m1961 -18 l29 -23 -90 7 c-100 8 -140 19 -129 36 4 8 33 10 84 7 61 -4 83 -9
106 -27z m-4596 9 c16 -9 18 -14 8 -35 -14 -31 -31 -37 -57 -19 -48 34 -3 82
49 54z m-1696 -16 c13 -33 6 -55 -20 -64 -14 -6 -30 -8 -35 -4 -10 6 -12 67
-2 77 12 13 51 7 57 -9z m415 -101 c1 -12 13 -48 28 -80 15 -32 29 -62 32 -68
2 -5 -3 -4 -12 3 -26 22 -67 139 -72 205 l-4 62 13 -50 c8 -27 15 -60 15 -72z
m1731 83 c0 -2 -8 -10 -17 -17 -16 -13 -17 -12 -4 4 13 16 21 21 21 13z m4119
-24 c53 -5 77 -12 85 -24 5 -9 8 -19 6 -20 -3 -2 -53 -1 -112 2 -81 4 -111 9
-124 22 -24 23 -10 37 34 32 20 -3 70 -8 111 -12z m-5735 -38 c11 -30 6 -53
-14 -59 -27 -8 -50 11 -50 40 0 34 52 50 64 19z m1101 4 c30 -13 30 -16 7 -46
-16 -21 -21 -22 -45 -11 -27 12 -32 24 -21 53 7 19 24 20 59 4z m556 -18 c25
-14 24 -42 -1 -65 -17 -15 -24 -16 -45 -7 -29 13 -31 29 -9 60 17 25 27 27 55
12z m-373 -41 c208 -88 194 -79 165 -111 -23 -25 -32 -24 -130 26 -49 24 -108
50 -133 57 -25 7 -47 14 -49 15 -7 5 29 54 39 54 6 0 54 -19 108 -41z m4483 8
c81 -4 99 -10 99 -33 0 -11 -17 -14 -82 -13 -130 1 -172 10 -176 36 -3 21 0
22 40 18 24 -3 77 -7 119 -8z m-6255 -31 c7 -39 0 -56 -23 -56 -33 0 -59 72
-30 83 32 14 46 6 53 -27z m1521 -22 c11 -17 10 -23 -3 -42 -18 -25 -33 -28
-59 -8 -18 13 -18 14 4 45 25 35 37 36 58 5z m-993 -16 c12 -46 7 -58 -22 -58
-54 0 -68 36 -24 62 35 23 39 22 46 -4z m1540 -4 c24 -9 19 -47 -9 -74 -24
-22 -25 -23 -45 -5 -18 16 -18 20 -5 45 8 16 20 30 27 33 7 3 14 6 15 6 1 1 8
-2 17 -5z m4299 -33 c4 -4 5 -15 1 -25 -5 -14 -15 -16 -58 -12 -28 3 -86 8
-128 12 -72 5 -78 8 -78 27 0 22 1 22 128 14 70 -5 131 -12 135 -16z m-1768
-2 c142 -12 165 -16 165 -30 0 -8 -37 -9 -122 -4 -151 8 -415 33 -483 45 -64
11 269 3 440 -11z m-4547 -34 c17 -37 15 -48 -10 -64 -20 -12 -24 -11 -45 13
-29 34 -29 50 0 64 34 16 43 14 55 -13z m1380 -28 c5 -27 -27 -57 -60 -57 -35
0 -35 10 -2 50 28 33 57 36 62 7z m-851 -9 c36 -34 25 -58 -27 -58 -28 0 -43
63 -17 73 19 8 19 8 44 -15z m1409 -22 c3 -8 -2 -28 -11 -45 -13 -26 -19 -30
-35 -21 -31 17 -33 30 -9 56 25 27 47 31 55 10z m4292 5 c75 -1 82 -3 82 -21
0 -17 -7 -20 -42 -20 -50 0 -220 19 -226 25 -12 12 13 22 55 20 26 -1 85 -3
131 -4z m-5791 -23 c30 -28 29 -41 -4 -55 -238 -94 -232 -92 -249 -76 -15 15
-14 18 8 35 12 10 47 27 77 38 29 11 72 34 95 50 22 16 43 29 45 30 3 0 15
-10 28 -22z m-379 -49 c4 -23 -43 -42 -58 -24 -7 8 -10 22 -6 31 8 20 60 15
64 -7z m576 -22 c8 -14 8 -20 -4 -27 -40 -26 -87 2 -59 36 16 19 49 15 63 -9z
m626 0 c0 -31 -27 -67 -50 -67 -26 0 -33 16 -19 42 25 48 69 63 69 25z m609 9
c9 -11 9 -19 -1 -35 -19 -31 -68 -25 -68 8 0 37 46 55 69 27z m-184 -71 c-133
-122 -168 -132 -342 -94 -126 28 -129 29 -100 58 l24 22 114 -21 c63 -11 134
-24 159 -29 51 -11 51 -11 144 77 37 34 70 62 74 62 4 0 -29 -34 -73 -75z
m4558 65 c44 0 57 -3 57 -15 0 -25 -26 -28 -123 -16 -121 16 -137 19 -137 32
0 8 22 10 73 6 39 -4 98 -7 130 -7z m-1761 -152 c92 -139 118 -181 118 -192 0
-3 -61 -6 -136 -6 l-135 0 -43 93 c-24 50 -57 121 -75 156 -17 36 -30 66 -28
67 3 3 142 20 183 23 17 1 41 -29 116 -141z m-4382 110 c25 -27 25 -35 -1 -49
-17 -9 -25 -7 -45 12 -13 12 -24 26 -24 31 0 7 23 20 47 27 1 1 11 -9 23 -21z
m3168 6 c39 -3 72 -9 71 -13 0 -3 -33 -71 -72 -151 l-72 -145 -157 -3 c-97 -1
-158 1 -158 7 0 5 35 54 77 108 42 54 97 124 122 156 43 55 47 58 81 53 19 -3
68 -8 108 -12z m-458 -14 c0 -5 7 -10 16 -10 11 0 14 -5 9 -17 -12 -33 -75
-138 -118 -198 -39 -55 -46 -60 -85 -63 -27 -2 -42 1 -42 9 0 15 93 171 142
237 24 32 46 52 58 52 11 0 20 -4 20 -10z m1279 -150 c68 -132 70 -140 33
-140 -45 0 -98 26 -126 63 -29 38 -77 142 -73 159 4 24 36 51 51 45 11 -4 16
-1 16 11 1 29 45 -33 99 -138z m-3508 120 c13 -10 19 -19 13 -20 -7 0 -22 9
-35 20 -13 10 -19 19 -13 20 7 0 22 -9 35 -20z m147 8 c-5 -15 -55 -35 -64
-25 -4 4 -1 13 6 22 15 18 64 21 58 3z m3065 -12 c18 -19 93 -172 122 -248 7
-17 -5 -18 -169 -18 -97 0 -176 4 -176 9 0 4 30 70 66 145 l65 136 35 0 c24 0
42 -7 57 -24z m-2013 -11 c0 -30 -27 -46 -57 -34 -29 11 -29 24 -1 43 34 24
58 20 58 -9z m4485 6 c12 -20 -32 -28 -110 -20 -125 12 -125 12 -30 19 50 3
100 7 112 8 12 1 24 -2 28 -7z m-5125 -29 c0 -17 -25 -32 -52 -32 -34 0 -37
22 -6 44 21 15 58 7 58 -12z m-285 -28 c36 -24 18 -35 -35 -22 -61 15 -77 28
-55 44 19 14 46 7 90 -22z m-656 2 c17 -21 -24 -49 -51 -35 -18 10 -24 30 -11
42 11 12 50 7 62 -7z m62 -2 c17 -8 29 -18 26 -20 -6 -6 -67 23 -67 31 0 8 10
6 41 -11z m5949 -4 c0 -14 -24 -22 -52 -18 l-23 5 25 11 c32 14 50 15 50 2z
m-4530 -25 c0 -23 -46 -41 -65 -25 -14 11 -13 14 2 26 25 18 63 18 63 -1z
m-666 -21 c26 -10 18 -23 -19 -30 -47 -8 -72 1 -55 21 13 16 47 20 74 9z
m-750 -10 c28 -11 17 -24 -18 -24 -34 0 -52 11 -39 24 8 8 37 8 57 0z m1316
-24 c20 -12 4 -28 -36 -36 -24 -4 -33 -2 -38 11 -3 9 -4 21 0 26 7 12 55 11
74 -1z m-494 -38 c5 -5 36 -17 69 -26 33 -10 66 -19 73 -22 7 -2 10 -8 7 -14
-7 -12 -83 -13 -282 -3 -126 5 -143 8 -143 23 0 24 52 45 78 31 14 -7 39 -6
88 3 85 17 98 18 110 8z m-740 -16 c17 -13 15 -14 -19 -6 -47 10 -59 20 -26
20 14 0 34 -6 45 -14z m1024 10 c0 -2 -7 -7 -16 -10 -8 -3 -12 -2 -9 4 6 10
25 14 25 6z m83 -27 c19 -31 1 -49 -48 -49 -25 0 -45 3 -45 7 0 4 12 20 27 35
29 31 50 33 66 7z m-989 -15 c9 -3 13 -10 10 -15 -9 -15 -60 -10 -74 6 -11 13
-8 15 18 15 17 0 37 -3 46 -6z"/>
<path d="M8541 7295 c-65 -18 -94 -38 -160 -111 -60 -66 -91 -121 -119 -219
-42 -142 -56 -412 -28 -557 22 -113 72 -256 113 -327 50 -85 164 -198 229
-228 107 -49 242 -25 320 59 87 91 164 248 149 302 -5 17 -4 18 4 6 9 -13 11
-13 11 3 0 9 -4 17 -10 17 -11 0 -3 28 15 50 39 49 43 268 10 450 -39 212
-139 417 -239 493 -84 64 -199 88 -295 62z m87 -263 c54 -54 79 -89 116 -163
67 -138 81 -198 80 -364 0 -153 -19 -247 -70 -347 -47 -93 -158 -193 -206
-186 -20 3 -18 5 16 28 42 28 117 122 152 192 56 111 78 321 50 471 -9 49 -26
113 -37 143 -21 56 -98 180 -157 252 -53 65 -21 50 56 -26z m140 -37 c140
-159 193 -504 115 -750 -39 -125 -140 -262 -219 -300 -58 -27 -52 -8 17 54 76
69 116 137 155 266 25 82 28 105 28 255 1 146 -2 173 -22 240 -32 102 -95 228
-140 281 l-37 44 32 -23 c17 -12 49 -42 71 -67z m-208 -24 c126 -128 174 -258
174 -476 1 -121 -2 -150 -23 -212 -43 -132 -173 -285 -218 -257 -26 16 -26 31
-1 37 69 18 141 126 173 258 22 96 20 296 -5 393 -27 105 -80 203 -151 275
-32 34 -59 63 -59 66 0 15 52 -25 110 -84z m-89 -19 c129 -110 203 -352 170
-558 -15 -101 -47 -198 -76 -232 -28 -34 -110 -76 -131 -68 -25 9 -15 25 36
62 85 61 120 165 120 355 0 191 -46 325 -146 424 -30 30 -54 56 -54 59 0 12
44 -10 81 -42z m-76 -42 c120 -82 168 -198 169 -405 0 -141 -13 -202 -59 -281
-22 -38 -86 -94 -106 -94 -15 0 -51 76 -76 159 -22 75 -27 109 -31 264 -5 222
16 387 50 387 5 0 29 -13 53 -30z m554 -702 c-18 -34 -72 -118 -76 -118 -2 0
-2 3 0 8 21 39 49 109 54 132 5 25 7 27 20 15 11 -12 12 -19 2 -37z m-93 -156
c-18 -16 -18 -16 -6 6 6 13 14 21 18 18 3 -4 -2 -14 -12 -24z"/>
<path d="M6638 6803 c12 -2 30 -2 40 0 9 3 -1 5 -23 4 -22 0 -30 -2 -17 -4z"/>
<path d="M6570 5543 c-49 -62 1 -183 75 -183 36 0 80 40 90 83 7 26 6 27 -20
17 -41 -16 -65 2 -65 50 0 29 -5 42 -19 50 -29 15 -37 13 -61 -17z"/>
<path d="M5656 4524 c-17 -43 6 -81 43 -69 23 7 35 37 26 65 -8 25 -60 28 -69
4z"/>
<path d="M6510 4639 c-16 -16 -32 -40 -36 -52 -7 -22 -8 -22 -15 3 -5 19 -7
13 -8 -25 -1 -61 14 -92 58 -122 38 -26 67 -29 106 -11 31 14 32 22 0 36 -53
24 -84 128 -55 183 17 31 -18 24 -50 -12z"/>
<path d="M6594 4554 c-6 -24 6 -43 28 -44 12 0 30 41 24 56 -9 25 -45 17 -52
-12z"/>
<path d="M1347 4353 c-15 -2 -25 -8 -22 -13 3 -5 11 -7 18 -5 7 2 25 7 41 9
16 3 31 8 34 11 6 5 -26 5 -71 -2z"/>
<path d="M1255 4320 c3 -5 8 -10 11 -10 2 0 4 5 4 10 0 6 -5 10 -11 10 -5 0
-7 -4 -4 -10z"/>
<path d="M1168 4303 l-57 -15 15 -29 c8 -16 18 -29 23 -29 5 0 23 16 40 35 17
20 31 30 31 23 0 -9 3 -9 10 2 12 18 13 30 3 29 -5 -1 -34 -8 -65 -16z"/>
<path d="M4916 3333 c8 -43 14 -55 14 -27 0 10 3 29 6 42 5 16 2 22 -10 22
-14 0 -16 -6 -10 -37z"/>
<path d="M4920 3236 c0 -9 5 -16 10 -16 6 0 10 4 10 9 0 6 -4 13 -10 16 -5 3
-10 -1 -10 -9z"/>
<path d="M3202 2383 c-45 -22 -82 -78 -82 -125 0 -29 7 -45 35 -72 41 -41 85
-52 140 -34 74 25 106 108 65 175 -36 60 -103 84 -158 56z"/>
<path d="M7809 2393 l-105 -4 -12 -157 c-6 -86 -11 -284 -12 -438 -1 -312 0
-320 65 -399 45 -56 83 -72 188 -81 l87 -7 0 100 0 101 -28 5 c-16 3 -39 15
-53 26 l-24 19 0 421 c0 232 0 420 0 419 0 -1 -48 -4 -106 -5z"/>
<path d="M2482 2340 c-188 -49 -330 -188 -377 -365 -17 -67 -19 -208 -4 -275
54 -237 281 -403 529 -387 47 3 111 14 143 26 63 22 160 84 227 144 l42 39
-23 16 c-52 38 -79 59 -123 96 -26 21 -48 37 -49 35 -52 -77 -65 -91 -106
-111 -37 -19 -63 -23 -131 -23 -76 0 -91 3 -140 30 -95 53 -150 152 -150 275
0 87 24 151 77 211 60 66 109 88 194 89 97 0 154 -23 219 -90 l55 -56 34 34
c18 18 55 47 82 64 27 16 49 33 49 37 0 4 -33 40 -74 79 -140 136 -295 179
-474 132z"/>

<path d="M6096 2092 c-191 -61 -303 -219 -293 -415 3 -56 11 -91 30 -134 33
-70 111 -155 176 -190 117 -64 288 -73 399 -22 76 34 186 106 176 115 -4 3
-34 26 -66 50 -32 24 -64 52 -71 62 -12 17 -14 16 -39 -12 -42 -46 -84 -64
-157 -64 -53 0 -75 5 -117 28 -47 26 -83 71 -83 103 0 4 105 8 233 9 127 0
259 4 291 8 l59 8 -6 71 c-9 100 -21 136 -69 208 -48 72 -146 149 -221 173
-59 19 -185 20 -242 2z m223 -212 c25 -27 42 -56 42 -70 l0 -24 -155 0 c-173
0 -175 1 -135 67 33 55 100 86 170 78 26 -3 46 -16 78 -51z"/>

<path d="M3871 2094 c-55 -20 -116 -58 -130 -81 -8 -14 -10 -7 -11 35 l0 52
-116 0 -116 0 6 -26 c4 -14 7 -190 6 -390 l0 -365 115 3 115 3 3 240 c2 234 3
241 25 270 65 83 171 94 237 25 l30 -31 5 -252 5 -252 120 -2 120 -1 -3 241
c-3 275 -13 333 -68 414 -79 115 -215 161 -343 117z"/>
<path d="M4659 2097 c-57 -16 -124 -55 -168 -98 -169 -167 -170 -409 -1 -580
74 -75 140 -101 276 -107 90 -4 107 -2 162 21 34 13 91 44 127 68 l66 43 -43
35 c-24 20 -57 49 -74 66 -30 29 -33 30 -43 13 -31 -49 -151 -87 -217 -69 -20
5 -51 20 -70 33 -36 25 -80 93 -66 102 5 3 132 6 281 7 l272 2 -7 61 c-17 175
-102 314 -230 377 -53 26 -80 33 -142 36 -43 1 -97 -3 -123 -10z m165 -180
c44 -25 72 -59 82 -99 l6 -28 -157 0 -157 0 6 28 c11 43 38 75 86 100 55 28
85 28 134 -1z"/>
<path d="M7015 2096 c-191 -61 -303 -219 -293 -415 3 -56 11 -91 30 -134 33
-70 111 -155 176 -190 117 -64 288 -73 399 -22 76 34 186 106 176 115 -4 3
-34 26 -66 50 -32 24 -64 52 -71 62 -12 17 -14 16 -39 -12 -42 -46 -84 -64
-157 -64 -53 0 -75 5 -117 28 -47 26 -83 71 -83 103 0 4 105 8 233 9 127 0
259 4 291 8 l59 8 -6 71 c-9 100 -21 136 -69 208 -48 72 -146 149 -221 173
-59 19 -185 20 -242 2z m223 -212 c25 -27 42 -56 42 -70 l0 -24 -155 0 c-173
0 -175 1 -135 67 33 55 100 86 170 78 26 -3 46 -16 78 -51z"/>
<path d="M5610 2087 c-19 -6 -59 -35 -89 -66 l-53 -54 7 61 7 62 -119 0 -119
0 4 -377 c2 -208 5 -379 6 -380 0 0 52 -3 114 -5 l112 -3 0 205 c0 233 7 261
76 318 37 31 43 32 126 32 l87 0 5 33 c3 17 7 64 10 103 l5 72 -37 6 c-52 8
-101 6 -142 -7z"/>
<path d="M3124 2068 c3 -13 6 -186 6 -385 l0 -363 118 0 117 0 -8 247 c-4 137
-6 310 -3 386 l6 137 -121 0 c-121 0 -121 0 -115 -22z"/>
</g>
</svg>
